<svg width="50" height="50" viewBox="0 0 50 50" fill="none" xmlns="http://www.w3.org/2000/svg">
<g clip-path="url(#clip0_1_35)">
<path d="M25 46.475C36.8603 46.475 46.475 36.8603 46.475 25C46.475 13.1397 36.8603 3.52499 25 3.52499C13.1397 3.52499 3.52499 13.1397 3.52499 25C3.52499 36.8603 13.1397 46.475 25 46.475Z" fill="white"/>
<path d="M29.9667 39.9139C28.9444 38.5778 21.4528 38.5778 20.4333 39.9139C21.4555 38.5778 22.525 31.8222 21.7944 30.8667C22.525 31.8194 27.875 31.8194 28.6055 30.8667C27.875 31.8222 28.9444 38.5806 29.9667 39.9139Z" fill="#EFAA75"/>
<path d="M36.3028 43.0833C36.325 43.9278 31.45 46.5667 24.9889 46.5667C18.5278 46.5667 13.8944 43.9778 13.9028 43.0833C13.9139 41.65 16.1639 39.3222 16.1639 39.3222C16.1639 39.3222 19.0056 38.0139 20.8278 37.6556C22.1528 37.3972 23.5278 39.2333 25.0361 39.2333C26.6306 39.2333 28.2139 37.4139 29.6 37.7C31.3306 38.0583 34.0417 39.3222 34.0417 39.3222C34.0417 39.3222 36.2639 41.65 36.3028 43.0833Z" fill="#37291F"/>
<path d="M20.4445 37.7694L25.1361 48.5194L29.9445 37.7694L25.2 38.6167L20.4445 37.7694Z" fill="#D8D8D8"/>
<path d="M21.4722 36.2944L25.2 38.6167L25.2056 40.9611L20.4445 37.7694L21.4722 36.2944Z" fill="#E3E3E3"/>
<path d="M28.9028 36.2944L25.1861 38.6167L25.1833 40.9611L29.9445 37.7694L28.9028 36.2944Z" fill="#E3E3E3"/>
<path d="M25.1361 48.5194L26.5528 45.3528L26.0778 40.8056L26.5306 40.225L25.1861 38.6167L23.5722 40.3083L24.1333 40.8722L23.7695 45.3889L25.1361 48.5194Z" fill="#25262A"/>
<path d="M18.8361 38.3L19.6611 43.5361L21.4695 44.2667L20.4445 45.5389L25.2 51.4528" stroke="#323232" stroke-width="0.54" stroke-miterlimit="10"/>
<path d="M31.5306 38.3L30.7056 43.5361L28.8972 44.2667L29.9222 45.5389L25.1667 51.4528" stroke="#323232" stroke-width="0.54" stroke-miterlimit="10"/>
<path d="M34.2778 22.5722C34.2778 28.1 30.1861 33.6 25.1889 33.6C20.1917 33.6 16.1 28.1 16.1 22.5722V14.2611C16.1 8.73334 20.1917 4.21112 25.1889 4.21112C30.1861 4.21112 34.2778 8.73334 34.2778 14.2611V22.5722Z" fill="#FFBA81"/>
<path d="M14.9855 23.4693C15.8137 23.3792 16.346 22.0278 16.1745 20.4508C16.003 18.8738 15.1927 17.6684 14.3645 17.7585C13.5364 17.8485 13.004 19.1999 13.1755 20.7769C13.347 22.3539 14.1574 23.5593 14.9855 23.4693Z" fill="#EFAA75"/>
<path d="M15.8694 19.6333C15.8694 19.6333 14.6639 17.6139 13.525 19.7639M15.4778 19.275C15.4778 19.275 14.3055 20.1555 14.1417 21.9472" stroke="#C98A5B" stroke-width="0.54" stroke-miterlimit="10" stroke-linecap="round" stroke-linejoin="round"/>
<path d="M37.1687 20.7056C37.3402 19.1286 36.8079 17.7772 35.9797 17.6872C35.1516 17.5971 34.3412 18.8025 34.1698 20.3795C33.9983 21.9565 34.5306 23.3079 35.3587 23.3979C36.1869 23.488 36.9973 22.2826 37.1687 20.7056Z" fill="#EFAA75"/>
<path d="M34.4778 19.5611C34.4778 19.5611 35.6833 17.5417 36.8222 19.6917M34.8667 19.2028C34.8667 19.2028 36.0389 20.0833 36.2028 21.875" stroke="#C98A5B" stroke-width="0.54" stroke-miterlimit="10" stroke-linecap="round" stroke-linejoin="round"/>
<path d="M22.8556 14.2639C22.8556 14.2639 22.9528 13.5305 22.4167 13.4333C21.8778 13.3361 18.2639 14.4111 18.0667 14.6555C17.8722 14.9 18.0667 16.025 18.0667 16.025C18.0667 16.025 21.2417 14.0667 22.8556 14.2639ZM26.8139 13.675C26.8139 13.675 29.3806 13.2028 31.1639 14.6028C31.8472 15.1417 31.6028 15.6278 31.6028 15.6278C31.6028 15.6278 28.2667 14.4694 26.5695 14.8944C26.1778 14.9944 26.8139 13.675 26.8139 13.675Z" fill="#65463B"/>
<path d="M25.8528 16.6583L25.1028 17.8305L25.2 22.7667L27.35 22.7167L27.1056 24.3305L25.4444 25.1111" stroke="#C98A5B" stroke-width="1.26" stroke-miterlimit="10"/>
<path d="M34.1056 24.55C34.1444 24.3361 34.25 23.6361 34.25 23.3028C34.25 23.3028 28.7028 25.2583 25.0694 25.2583C21.3556 25.2583 16.1194 23.3028 16.1194 23.3028C16.1194 23.3028 16.2083 24.3444 16.2694 24.55C17.0944 29.3389 20.7889 33.5972 25.1861 33.5972C29.5833 33.5972 33.2806 29.3389 34.1056 24.55Z" fill="#EAA471"/>
<path d="M17.9667 24.475L18.2611 25.3556" stroke="#D69163" stroke-width="0.9" stroke-miterlimit="10" stroke-linecap="round" stroke-linejoin="round"/>
<path d="M17.5778 25.9083L17.8695 26.725" stroke="#D69163" stroke-width="0.72" stroke-miterlimit="10" stroke-linecap="round" stroke-linejoin="round"/>
<path d="M19.7278 26.5611L20.1195 27.3445" stroke="#D69163" stroke-width="0.54" stroke-miterlimit="10" stroke-linecap="round" stroke-linejoin="round"/>
<path d="M20.2167 28.1083L20.3139 28.6472" stroke="#D69163" stroke-width="0.72" stroke-miterlimit="10" stroke-linecap="round" stroke-linejoin="round"/>
<path d="M18.425 27.6694L18.6528 28.5472" stroke="#D69163" stroke-width="0.54" stroke-miterlimit="10" stroke-linecap="round" stroke-linejoin="round"/>
<path d="M21.8778 27.7028L21.8445 28.4833" stroke="#D69163" stroke-width="0.54" stroke-miterlimit="10" stroke-linecap="round" stroke-linejoin="round"/>
<path d="M19.5 29.3944L19.7278 30.275" stroke="#D69163" stroke-width="0.54" stroke-miterlimit="10" stroke-linecap="round" stroke-linejoin="round"/>
<path d="M21.0305 31.4167L21.4222 32.05" stroke="#D69163" stroke-width="0.9" stroke-miterlimit="10" stroke-linecap="round" stroke-linejoin="round"/>
<path d="M21.3556 29.95L21.6167 30.7972" stroke="#D69163" stroke-width="0.54" stroke-miterlimit="10" stroke-linecap="round" stroke-linejoin="round"/>
<path d="M22.9861 30.2417L23.05 31.1" stroke="#D69163" stroke-width="0.72" stroke-miterlimit="10" stroke-linecap="round" stroke-linejoin="round"/>
<path d="M23.8333 31.9695L24.0278 32.75" stroke="#D69163" stroke-width="0.9" stroke-miterlimit="10" stroke-linecap="round" stroke-linejoin="round"/>
<path d="M24.875 29.5583L24.8083 30.4055" stroke="#D69163" stroke-width="0.54" stroke-miterlimit="10" stroke-linecap="round" stroke-linejoin="round"/>
<path d="M24.3528 28.2889L24.3833 28.7444" stroke="#D69163" stroke-width="0.9" stroke-miterlimit="10" stroke-linecap="round" stroke-linejoin="round"/>
<path d="M19.6945 25.0305L19.7278 25.5833" stroke="#D69163" stroke-width="0.72" stroke-miterlimit="10" stroke-linecap="round" stroke-linejoin="round"/>
<path d="M21.3556 25.225L21.2583 25.7806" stroke="#D69163" stroke-width="0.54" stroke-miterlimit="10" stroke-linecap="round" stroke-linejoin="round"/>
<path d="M23.1472 25.9417L23.2778 26.4972" stroke="#D69163" stroke-width="0.54" stroke-miterlimit="10" stroke-linecap="round" stroke-linejoin="round"/>
<path d="M24.8528 25.6694L24.9389 26.4972" stroke="#D69163" stroke-width="0.72" stroke-miterlimit="10" stroke-linecap="round" stroke-linejoin="round"/>
<path d="M26.5361 26.1472L26.4389 26.7556" stroke="#D69163" stroke-width="0.54" stroke-miterlimit="10" stroke-linecap="round" stroke-linejoin="round"/>
<path d="M27.775 25.3667L27.7417 25.8111" stroke="#D69163" stroke-width="0.72" stroke-miterlimit="10" stroke-linecap="round" stroke-linejoin="round"/>
<path d="M30.275 25.7389L30.4111 24.8472" stroke="#D69163" stroke-width="0.54" stroke-miterlimit="10" stroke-linecap="round" stroke-linejoin="round"/>
<path d="M32.6278 24.15L32.4972 24.9333" stroke="#D69163" stroke-width="0.9" stroke-miterlimit="10" stroke-linecap="round" stroke-linejoin="round"/>
<path d="M28.0667 27.8639L27.725 28.5333" stroke="#D69163" stroke-width="0.54" stroke-miterlimit="10" stroke-linecap="round" stroke-linejoin="round"/>
<path d="M29.7278 27.2611L29.4361 27.9944" stroke="#D69163" stroke-width="0.54" stroke-miterlimit="10" stroke-linecap="round" stroke-linejoin="round"/>
<path d="M31.5861 26.6278L31.0972 27.3111" stroke="#D69163" stroke-width="0.72" stroke-miterlimit="10" stroke-linecap="round" stroke-linejoin="round"/>
<path d="M33.15 25.7472L32.7583 26.4806" stroke="#D69163" stroke-width="0.36" stroke-miterlimit="10" stroke-linecap="round" stroke-linejoin="round"/>
<path d="M29.7778 28.9222L29.3861 29.6084" stroke="#D69163" stroke-width="0.72" stroke-miterlimit="10" stroke-linecap="round" stroke-linejoin="round"/>
<path d="M26.7 29.9L26.4389 30.6667" stroke="#D69163" stroke-width="0.54" stroke-miterlimit="10" stroke-linecap="round" stroke-linejoin="round"/>
<path d="M29.8917 30.7972L29.3055 31.4472" stroke="#D69163" stroke-width="0.72" stroke-miterlimit="10" stroke-linecap="round" stroke-linejoin="round"/>
<path d="M27.9361 30.7306L27.775 31.3167" stroke="#D69163" stroke-width="0.54" stroke-miterlimit="10" stroke-linecap="round" stroke-linejoin="round"/>
<path d="M26.5028 31.7083L26.3083 32.4917" stroke="#D69163" stroke-width="0.72" stroke-miterlimit="10" stroke-linecap="round" stroke-linejoin="round"/>
<path d="M31.3306 28.8083L31.1306 29.4278" stroke="#D69163" stroke-width="0.9" stroke-miterlimit="10" stroke-linecap="round" stroke-linejoin="round"/>
<path d="M32.3028 27.8639L32.0417 28.45" stroke="#D69163" stroke-width="0.54" stroke-miterlimit="10" stroke-linecap="round" stroke-linejoin="round"/>
<path d="M22.025 26.2833L21.4861 26.8694" stroke="#442007" stroke-width="0.9" stroke-miterlimit="10" stroke-linecap="round"/>
<path d="M29.0445 26.2833L29.5834 26.8694" stroke="#442007" stroke-width="0.9" stroke-miterlimit="10" stroke-linecap="round"/>
<path d="M29.2694 26.5694C28.6139 27.2666 27.1722 27.7528 25.5 27.7528C23.8333 27.7528 22.3944 27.2722 21.7361 26.5778" stroke="#442007" stroke-width="0.9" stroke-miterlimit="10"/>
<path opacity="0.5" d="M27.3667 19.0667C27.4389 19.2972 27.8445 20 29.0611 20.1083C30.15 20.2055 30.9083 19.7028 30.9083 18.9583C30.9083 18.2139 30.1084 17.5028 29.0972 17.5028C28.5917 17.5028 27.8334 17.4805 27.475 17.6833C27.2584 17.8083 27.2528 18.7055 27.3667 19.0667Z" fill="#F7EDE7"/>
<path d="M30.6611 18.1972C30.6611 18.1972 29.4667 16.8889 27.475 17.6861C27.475 17.6861 28.9528 17.5722 30.6611 18.1972Z" fill="#65463B"/>
<path d="M29.1222 20.0194C29.7512 20.0194 30.2611 19.5095 30.2611 18.8806C30.2611 18.2516 29.7512 17.7417 29.1222 17.7417C28.4932 17.7417 27.9833 18.2516 27.9833 18.8806C27.9833 19.5095 28.4932 20.0194 29.1222 20.0194Z" fill="#65463B"/>
<path opacity="0.5" d="M22.9861 19.0667C22.9139 19.2972 22.5083 20 21.2917 20.1083C20.2028 20.2083 19.4445 19.7055 19.4445 18.9583C19.4445 18.2111 20.2445 17.5028 21.2556 17.5028C21.7611 17.5028 22.5195 17.4805 22.8778 17.6833C23.0945 17.8083 23.0972 18.7055 22.9861 19.0667Z" fill="#F7EDE7"/>
<path d="M19.6917 18.1972C19.6917 18.1972 20.8861 16.8889 22.8778 17.6861C22.8778 17.6861 21.3972 17.5722 19.6917 18.1972Z" fill="#65463B"/>
<path d="M21.2306 20.0194C21.8596 20.0194 22.3695 19.5095 22.3695 18.8806C22.3695 18.2516 21.8596 17.7417 21.2306 17.7417C20.6016 17.7417 20.0917 18.2516 20.0917 18.8806C20.0917 19.5095 20.6016 20.0194 21.2306 20.0194Z" fill="#65463B"/>
<path opacity="0.39" d="M26.6861 19.975C26.7361 20.3 27.05 20.5667 27.3778 20.5667H32.0417C32.3722 20.5667 32.675 20.3 32.7167 19.9722L32.9778 17.9C33.0194 17.5722 32.7861 17.2667 32.4583 17.2194L26.7056 16.4056C26.3778 16.3583 26.1528 16.5889 26.2056 16.9139L26.6861 19.975Z" fill="#D8A177"/>
<path opacity="0.3" d="M26.3111 16.3556L26.2639 17.1389L26.6056 19.825L27.0444 20.4611L28.4139 20.5083L30.6611 16.9417L26.3111 16.3556Z" fill="#FFE8D9"/>
<path d="M26.6861 19.975C26.7361 20.3 27.05 20.5667 27.3778 20.5667H32.0417C32.3722 20.5667 32.675 20.3 32.7167 19.9722L32.9778 17.9C33.0194 17.5722 32.7861 17.2667 32.4583 17.2194L26.7056 16.4056C26.3778 16.3583 26.1528 16.5889 26.2056 16.9139L26.6861 19.975Z" stroke="#66391B" stroke-width="0.9" stroke-miterlimit="10"/>
<path d="M34.2861 18.5806L34.2417 18.4445L32.8889 17.3083L32.8111 17.4945L33.1833 18.0417L34.0806 18.7083L34.2611 19.1583C34.2889 19.225 34.3889 19.2083 34.3945 19.1361V19.1333C34.4389 19.1556 34.3 18.625 34.2861 18.5806Z" fill="#66391B"/>
<path opacity="0.39" d="M23.6639 19.975C23.6139 20.3 23.3 20.5667 22.9722 20.5667H18.3084C17.9778 20.5667 17.675 20.3 17.6334 19.9722L17.3722 17.9C17.3306 17.5722 17.5639 17.2667 17.8917 17.2194L23.6445 16.4056C23.9722 16.3583 24.1972 16.5889 24.1445 16.9139L23.6639 19.975Z" fill="#D8A177"/>
<path opacity="0.3" d="M17.4639 17.3083L17.4667 18.75L17.9056 20.5083H19.5667L21.8167 16.6972L17.4639 17.3083Z" fill="#FFE8D9"/>
<path d="M23.6639 19.975C23.6139 20.3 23.3 20.5667 22.9722 20.5667H18.3084C17.9778 20.5667 17.675 20.3 17.6334 19.9722L17.3722 17.9C17.3306 17.5722 17.5639 17.2667 17.8917 17.2194L23.6445 16.4056C23.9722 16.3583 24.1972 16.5889 24.1445 16.9139L23.6639 19.975Z" stroke="#66391B" stroke-width="0.9" stroke-miterlimit="10"/>
<path d="M16.0639 18.5806L16.1111 18.4445L17.4639 17.3083L17.5417 17.4945L17.1695 18.0417L16.2722 18.7083L16.0917 19.1583C16.0639 19.225 15.9639 19.2083 15.9583 19.1361V19.1333C15.9139 19.1556 16.05 18.625 16.0639 18.5806Z" fill="#66391B"/>
<path d="M24.1083 17.4386L26.2278 17.4222" stroke="#66391B" stroke-width="1.44" stroke-miterlimit="10"/>
<path d="M16.1639 20.0889C16.1639 20.0889 18.0972 11.6389 18.2917 10.075C18.2917 10.075 27.7389 12.9417 32.6917 10.075C32.6917 10.075 34.5 16.0528 34.2333 19.8917C34.2333 19.8278 37.7083 12.7472 35.7528 7.01111C35.0361 5.38333 32.5611 5.31666 32.5611 5.31666C32.5611 5.31666 35.2333 4.07778 34.0611 2.58055C32.8889 1.08055 27.8722 -0.808336 21.7472 4.08055C20.575 5.05833 23.8806 1.25278 22.3333 1.8C20.1194 2.58333 16.8917 4.95 15.4917 10.5333C14.0361 16.3306 16.1639 20.0889 16.1639 20.0889Z" fill="#442007"/>
<path d="M22.5278 5.71111C22.5278 5.71111 27.6111 1.28055 32.0917 3.08611M16.0972 14.2611C16.0972 14.2611 16.0945 11.2806 17.5611 8.69166M19.4972 8.26944C19.4972 8.26944 26.0417 10.9861 32.0917 7.775C35.0556 6.16944 34.9306 15.6778 34.9306 15.6778" stroke="#592E11" stroke-width="0.72" stroke-miterlimit="10" stroke-linecap="round" stroke-linejoin="round"/>
</g>
<defs>
<clipPath id="clip0_1_35">
<rect width="50" height="50" fill="white"/>
</clipPath>
</defs>
</svg>
